<?xml version="1.0" encoding="utf-8"?>
<!-- Generator: Adobe Illustrator 16.0.0, SVG Export Plug-In . SVG Version: 6.00 Build 0)  -->
<!DOCTYPE svg PUBLIC "-//W3C//DTD SVG 1.1//EN" "http://www.w3.org/Graphics/SVG/1.1/DTD/svg11.dtd">
<svg version="1.1" xmlns="http://www.w3.org/2000/svg" xmlns:xlink="http://www.w3.org/1999/xlink" x="0px" y="0px" width="1280px"
	 height="683.5px" viewBox="0 0 1280 683.5" enable-background="new 0 0 1280 683.5" xml:space="preserve">
<g id="Layer_2" display="none">
	<rect y="-0.002" display="inline" fill="#36A9E1" width="1280" height="683.5"/>
	<text transform="matrix(1 0 0 1 30 54.8633)" display="inline" fill="#FFFFFF" font-family="'FuturaStd-Bold'" font-size="42">ICRI</text>
	<rect x="1041.343" y="32.94" display="inline" fill="none" width="45.321" height="13"/>
	
		<text transform="matrix(1 0 0 1 1041.3428 42.0117)" display="inline" fill="#FFFFFF" font-family="'Avenir-Medium'" font-size="12">ABOUT</text>
	<rect x="1124.267" y="32.94" display="inline" fill="none" width="39.088" height="13"/>
	
		<text transform="matrix(1 0 0 1 1124.2666 42.0117)" display="inline" fill="#FFFFFF" font-family="'Avenir-Medium'" font-size="12">team</text>
	<rect x="1200.957" y="32.94" display="inline" fill="none" width="48.654" height="13"/>
	
		<text transform="matrix(1 0 0 1 1200.957 42.0117)" display="inline" fill="#FFFFFF" font-family="'Avenir-Medium'" font-size="12">video</text>
	
		<rect x="426.297" y="-0.002" display="inline" fill="none" stroke="#FFFFFF" stroke-width="0.9846" stroke-miterlimit="10" width="28.189" height="683.5"/>
	
		<rect x="454.486" y="-0.002" display="inline" fill="none" stroke="#FFFFFF" stroke-width="0.9846" stroke-miterlimit="10" width="28.188" height="683.5"/>
	
		<rect x="510.863" y="-0.002" display="inline" fill="none" stroke="#FFFFFF" stroke-width="0.9846" stroke-miterlimit="10" width="28.188" height="683.5"/>
	
		<rect x="595.429" y="-0.002" display="inline" fill="none" stroke="#FFFFFF" stroke-width="0.9846" stroke-miterlimit="10" width="28.188" height="683.5"/>
	
		<rect x="482.674" y="-0.002" display="inline" fill="none" stroke="#FFFFFF" stroke-width="0.9846" stroke-miterlimit="10" width="28.189" height="683.5"/>
	
		<rect x="567.24" y="-0.002" display="inline" fill="none" stroke="#FFFFFF" stroke-width="0.9846" stroke-miterlimit="10" width="28.188" height="683.5"/>
	
		<rect x="539.051" y="-0.002" display="inline" fill="none" stroke="#FFFFFF" stroke-width="0.9846" stroke-miterlimit="10" width="28.189" height="683.5"/>
	
		<rect x="651.807" y="-0.002" display="inline" fill="none" stroke="#FFFFFF" stroke-width="0.9846" stroke-miterlimit="10" width="28.188" height="683.5"/>
	
		<rect x="679.994" y="-0.002" display="inline" fill="none" stroke="#FFFFFF" stroke-width="0.9846" stroke-miterlimit="10" width="28.189" height="683.5"/>
	
		<rect x="736.372" y="-0.002" display="inline" fill="none" stroke="#FFFFFF" stroke-width="0.9846" stroke-miterlimit="10" width="28.188" height="683.5"/>
	
		<rect x="820.938" y="-0.002" display="inline" fill="none" stroke="#FFFFFF" stroke-width="0.9846" stroke-miterlimit="10" width="28.188" height="683.5"/>
	
		<rect x="623.617" y="-0.002" display="inline" fill="none" stroke="#FFFFFF" stroke-width="0.9846" stroke-miterlimit="10" width="28.189" height="683.5"/>
	
		<rect x="708.184" y="-0.002" display="inline" fill="none" stroke="#FFFFFF" stroke-width="0.9846" stroke-miterlimit="10" width="28.188" height="683.5"/>
	
		<rect x="792.749" y="-0.002" display="inline" fill="none" stroke="#FFFFFF" stroke-width="0.9846" stroke-miterlimit="10" width="28.188" height="683.5"/>
	
		<rect x="764.561" y="-0.002" display="inline" fill="none" stroke="#FFFFFF" stroke-width="0.9846" stroke-miterlimit="10" width="28.188" height="683.5"/>
	<polygon display="inline" fill="#042632" stroke="#042632" stroke-miterlimit="10" points="736.286,525.428 708.098,542.271 
		708.098,575.109 736.286,558.266 	"/>
	<path display="inline" fill="#42BCED" stroke="#000000" stroke-width="0.9891" stroke-miterlimit="10" d="M510.564,258.545"/>
	<polygon display="inline" fill="#42BCED" points="539.392,275.603 567.58,259.397 595.43,275.447 567.58,292.445 	"/>
	<polygon display="inline" fill="#42BCED" points="736.711,426.406 764.9,410.201 792.75,426.25 764.9,443.25 	"/>
	<g display="inline">
		<g>
			<polygon fill="#105268" stroke="#105268" stroke-miterlimit="10" points="567.24,225.249 539.051,242.093 539.051,274.931 
				567.24,258.087 			"/>
			<polygon fill="#105268" stroke="#105268" stroke-miterlimit="10" points="623.617,225.249 595.429,242.093 595.429,274.931 
				623.617,258.087 			"/>
			<polygon fill="#105268" stroke="#105268" stroke-miterlimit="10" points="679.994,225.249 651.807,242.093 651.807,274.931 
				679.994,258.087 			"/>
			<polygon fill="#105268" stroke="#105268" stroke-miterlimit="10" points="736.372,225.249 708.184,242.093 708.184,274.931 
				736.372,258.087 			"/>
			<polygon fill="#105268" stroke="#105268" stroke-miterlimit="10" points="792.749,225.249 764.561,242.093 764.561,274.931 
				792.749,258.087 			"/>
			<polygon fill="#105268" stroke="#105268" stroke-miterlimit="10" points="849.126,225.249 820.938,242.093 820.938,274.931 
				849.126,258.087 			"/>
			<polygon fill="#105268" stroke="#105268" stroke-miterlimit="10" points="651.807,174.571 623.617,191.415 623.617,224.253 
				651.807,207.408 			"/>
			<polygon fill="#105268" stroke="#105268" stroke-miterlimit="10" points="708.184,174.571 679.994,191.415 679.994,224.253 
				708.184,207.408 			"/>
			<polygon fill="#105268" stroke="#105268" stroke-miterlimit="10" points="764.561,174.571 736.372,191.415 736.372,224.253 
				764.561,207.408 			"/>
			<polygon fill="#105268" stroke="#105268" stroke-miterlimit="10" points="820.938,174.571 792.749,191.415 792.749,224.253 
				820.938,207.408 			"/>
			<polygon fill="#105268" stroke="#105268" stroke-miterlimit="10" points="877.314,174.571 849.126,191.415 849.126,224.253 
				877.314,207.408 			"/>
			<polygon fill="#105268" stroke="#105268" stroke-miterlimit="10" points="454.656,325.713 426.468,343.547 426.468,376.385 
				454.656,359.539 			"/>
			<polygon fill="#105268" stroke="#105268" stroke-miterlimit="10" points="511.033,326.703 482.846,343.547 482.846,376.385 
				511.033,359.539 			"/>
			<polygon fill="#105268" stroke="#105268" stroke-miterlimit="10" points="567.411,326.703 539.223,343.547 539.223,376.385 
				567.411,359.539 			"/>
			<polygon fill="#105268" stroke="#105268" stroke-miterlimit="10" points="623.617,326.703 595.429,343.547 595.429,376.385 
				623.617,359.539 			"/>
			<polygon fill="#105268" stroke="#105268" stroke-miterlimit="10" points="679.994,326.703 651.807,343.547 651.807,376.385 
				679.994,359.539 			"/>
			<polygon fill="#105268" stroke="#105268" stroke-miterlimit="10" points="736.372,326.703 708.184,343.547 708.184,376.385 
				736.372,359.539 			"/>
			<polygon fill="#105268" stroke="#105268" stroke-miterlimit="10" points="792.749,326.703 764.561,343.547 764.561,376.385 
				792.749,359.539 			"/>
			<polygon fill="#105268" stroke="#105268" stroke-miterlimit="10" points="849.126,326.703 820.938,343.547 820.938,376.385 
				849.126,359.539 			"/>
			<polygon fill="#105268" stroke="#105268" stroke-miterlimit="10" points="482.76,376.385 454.572,393.229 454.572,426.066 
				482.76,409.223 			"/>
			<polygon fill="#105268" stroke="#105268" stroke-miterlimit="10" points="539.137,376.385 510.949,393.229 510.949,426.066 
				539.137,409.223 			"/>
			<polygon fill="#105268" stroke="#105268" stroke-miterlimit="10" points="595.344,376.385 567.155,393.229 567.155,426.066 
				595.344,409.223 			"/>
			<polygon fill="#105268" stroke="#105268" stroke-miterlimit="10" points="651.721,376.385 623.532,393.229 623.532,426.066 
				651.721,409.223 			"/>
			<polygon fill="#105268" stroke="#105268" stroke-miterlimit="10" points="708.098,376.385 679.909,393.229 679.909,426.066 
				708.098,409.223 			"/>
			<polygon fill="#105268" stroke="#105268" stroke-miterlimit="10" points="764.475,376.385 736.286,393.229 736.286,426.066 
				764.475,409.223 			"/>
			<polygon fill="#105268" stroke="#105268" stroke-miterlimit="10" points="820.853,376.385 792.664,393.229 792.664,426.066 
				820.853,409.223 			"/>
			<polygon fill="#105268" stroke="#105268" stroke-miterlimit="10" points="454.486,426.066 426.297,442.91 426.297,475.746 
				454.486,458.902 			"/>
			<polygon fill="#105268" stroke="#105268" stroke-miterlimit="10" points="510.863,426.066 482.674,442.91 482.674,475.746 
				510.863,458.902 			"/>
			<polygon fill="#105268" stroke="#105268" stroke-miterlimit="10" points="567.24,426.066 539.051,442.91 539.051,475.746 
				567.24,458.902 			"/>
			<polygon fill="#105268" stroke="#105268" stroke-miterlimit="10" points="623.446,426.066 595.258,442.91 595.258,475.746 
				623.446,458.902 			"/>
			<polygon fill="#105268" stroke="#105268" stroke-miterlimit="10" points="679.823,426.066 651.635,442.91 651.635,475.746 
				679.823,458.902 			"/>
			<polygon fill="#105268" stroke="#105268" stroke-miterlimit="10" points="736.2,426.066 708.013,442.91 708.013,475.746 
				736.2,458.902 			"/>
			<polygon fill="#105268" stroke="#105268" stroke-miterlimit="10" points="792.578,426.066 764.389,442.91 764.389,475.746 
				792.578,458.902 			"/>
			<polygon fill="#105268" stroke="#105268" stroke-miterlimit="10" points="848.955,426.066 820.767,442.91 820.767,475.746 
				848.955,458.902 			"/>
			<polygon fill="#105268" stroke="#105268" stroke-miterlimit="10" points="482.76,475.746 454.57,492.592 454.57,525.428 
				482.76,508.584 			"/>
			<polygon fill="#105268" stroke="#105268" stroke-miterlimit="10" points="539.137,475.746 510.948,492.592 510.948,525.428 
				539.137,508.584 			"/>
			<polygon fill="#105268" stroke="#105268" stroke-miterlimit="10" points="595.343,475.746 567.154,492.592 567.154,525.428 
				595.343,508.584 			"/>
			<polygon fill="#105268" stroke="#105268" stroke-miterlimit="10" points="651.721,475.746 623.531,492.592 623.531,525.428 
				651.721,508.584 			"/>
			<polygon fill="#105268" stroke="#105268" stroke-miterlimit="10" points="708.098,475.746 679.908,492.592 679.908,525.428 
				708.098,508.584 			"/>
			<polygon fill="#105268" stroke="#105268" stroke-miterlimit="10" points="764.474,475.746 736.286,492.592 736.286,525.428 
				764.474,508.584 			"/>
			<polygon fill="#105268" stroke="#105268" stroke-miterlimit="10" points="820.852,475.746 792.663,492.592 792.663,525.428 
				820.852,508.584 			"/>
			<polygon fill="#105268" stroke="#105268" stroke-miterlimit="10" points="454.572,525.428 426.383,542.271 426.383,575.109 
				454.572,558.266 			"/>
			<polygon fill="#105268" stroke="#105268" stroke-miterlimit="10" points="510.949,525.428 482.76,542.271 482.76,575.109 
				510.949,558.266 			"/>
			<polygon fill="#105268" stroke="#105268" stroke-miterlimit="10" points="567.326,525.428 539.137,542.271 539.137,575.109 
				567.326,558.266 			"/>
			<polygon fill="#105268" stroke="#105268" stroke-miterlimit="10" points="623.532,525.428 595.344,542.271 595.344,575.109 
				623.532,558.266 			"/>
			<polygon fill="#105268" stroke="#105268" stroke-miterlimit="10" points="679.909,525.428 651.721,542.271 651.721,575.109 
				679.909,558.266 			"/>
			<polygon fill="#105268" stroke="#105268" stroke-miterlimit="10" points="736.372,525.428 708.185,542.271 708.185,575.109 
				736.372,558.266 			"/>
			<polygon fill="#105268" stroke="#105268" stroke-miterlimit="10" points="792.664,525.428 764.475,542.271 764.475,575.109 
				792.664,558.266 			"/>
			<polygon fill="#105268" stroke="#105268" stroke-miterlimit="10" points="849.041,525.428 820.853,542.271 820.853,575.109 
				849.041,558.266 			"/>
			<polygon fill="#105268" stroke="#105268" stroke-miterlimit="10" points="482.76,575.109 454.57,591.953 454.57,624.791 
				482.76,607.945 			"/>
			<polygon fill="#105268" stroke="#105268" stroke-miterlimit="10" points="539.137,575.109 510.948,591.953 510.948,624.791 
				539.137,607.945 			"/>
			<polygon fill="#105268" stroke="#105268" stroke-miterlimit="10" points="595.343,575.109 567.154,591.953 567.154,624.791 
				595.343,607.945 			"/>
			<polygon fill="#105268" stroke="#105268" stroke-miterlimit="10" points="651.721,575.109 623.531,591.953 623.531,624.791 
				651.721,607.945 			"/>
			<polygon fill="#105268" stroke="#105268" stroke-miterlimit="10" points="708.098,575.109 679.908,591.953 679.908,624.791 
				708.098,607.945 			"/>
			<polygon fill="#105268" stroke="#105268" stroke-miterlimit="10" points="764.474,575.109 736.286,591.953 736.286,624.791 
				764.474,607.945 			"/>
			<polygon fill="#105268" stroke="#105268" stroke-miterlimit="10" points="820.852,575.109 792.663,591.953 792.663,624.791 
				820.852,607.945 			"/>
			<polygon fill="#105268" stroke="#105268" stroke-miterlimit="10" points="482.846,276.025 454.656,292.868 454.656,325.707 
				482.846,308.862 			"/>
			<polygon fill="#105268" stroke="#105268" stroke-miterlimit="10" points="539.223,276.025 511.033,292.868 511.033,325.707 
				539.223,308.862 			"/>
			<polygon fill="#105268" stroke="#105268" stroke-miterlimit="10" points="595.6,276.025 567.411,292.868 567.411,325.707 
				595.6,308.862 			"/>
			<polygon fill="#105268" stroke="#105268" stroke-miterlimit="10" points="651.977,276.025 623.788,292.868 623.788,325.707 
				651.977,308.862 			"/>
			<polygon fill="#105268" stroke="#105268" stroke-miterlimit="10" points="708.354,276.025 680.165,292.868 680.165,325.707 
				708.354,308.862 			"/>
			<polygon fill="#105268" stroke="#105268" stroke-miterlimit="10" points="764.731,276.025 736.542,292.868 736.542,325.707 
				764.731,308.862 			"/>
			<polygon fill="#105268" stroke="#105268" stroke-miterlimit="10" points="820.938,276.025 792.749,292.868 792.749,325.707 
				820.938,308.862 			"/>
			<polygon fill="#105268" stroke="#105268" stroke-miterlimit="10" points="877.314,276.025 849.126,292.868 849.126,325.707 
				877.314,308.862 			"/>
			<polygon fill="#105268" stroke="#105268" stroke-miterlimit="10" points="736.372,124.892 708.184,141.734 708.184,174.572 
				736.372,157.728 			"/>
			<polygon fill="#105268" stroke="#105268" stroke-miterlimit="10" points="792.749,124.892 764.561,141.734 764.561,174.572 
				792.749,157.728 			"/>
			<polygon fill="#105268" stroke="#105268" stroke-miterlimit="10" points="849.126,124.892 820.938,141.734 820.938,174.572 
				849.126,157.728 			"/>
			<polygon fill="#105268" stroke="#105268" stroke-miterlimit="10" points="820.938,75.21 792.749,92.054 792.749,124.892 
				820.938,108.046 			"/>
			<polygon fill="#105268" stroke="#105268" stroke-miterlimit="10" points="877.314,75.21 849.126,92.054 849.126,124.892 
				877.314,108.046 			"/>
		</g>
		<g>
			<polygon fill="#42BCED" points="454.486,191.987 510.863,225.675 510.863,258.513 454.486,224.824 			"/>
			<polygon fill="#42BCED" points="426.297,208.864 454.486,225.708 454.486,258.545 426.297,241.7 			"/>
			<polygon fill="#42BCED" points="398.194,157.431 426.383,174.274 426.383,207.112 398.194,190.268 			"/>
			<polygon fill="#42BCED" points="398.194,258.545 426.383,275.388 426.383,309.216 398.194,292.372 			"/>
			<polygon fill="#42BCED" points="398.194,326.209 426.383,343.051 426.383,376.879 398.194,360.035 			"/>
			<polygon fill="#42BCED" points="567.581,325.885 595.77,309.681 623.619,325.73 595.77,342.729 			"/>
			<polygon fill="#42BCED" points="623.786,325.885 651.975,309.681 679.824,325.73 651.975,342.729 			"/>
			<polygon fill="#42BCED" points="539.135,275.706 567.324,259.501 595.174,275.552 567.324,292.55 			"/>
			<polygon fill="#42BCED" points="708.523,376.066 736.711,359.861 764.561,375.91 736.711,392.908 			"/>
			<polygon fill="#42BCED" points="791.758,426.406 819.946,410.201 847.796,426.25 819.946,443.25 			"/>
			<polygon fill="#42BCED" points="511.526,325.504 539.715,309.3 567.564,325.35 539.715,342.348 			"/>
			<polygon fill="#42BCED" points="455.204,325.504 483.393,309.3 511.242,325.35 483.393,342.348 			"/>
			<polygon fill="#42BCED" points="595.922,375.787 624.109,359.582 651.96,375.633 624.109,392.631 			"/>
			<polygon fill="#42BCED" points="652.639,375.787 680.828,359.582 708.678,375.633 680.828,392.631 			"/>
			<polygon fill="#42BCED" points="539.314,376.066 567.504,359.861 595.354,375.91 567.504,392.908 			"/>
			<polygon fill="#42BCED" points="426.713,375.787 454.902,359.582 482.752,375.633 454.902,392.631 			"/>
			<polygon fill="#42BCED" points="483.432,375.787 511.62,359.582 539.47,375.633 511.62,392.631 			"/>
			<polygon fill="#42BCED" points="624.412,426.545 652.601,410.34 680.45,426.391 652.601,443.389 			"/>
			<polygon fill="#42BCED" points="511.811,426.268 539.999,410.062 567.849,426.111 539.999,443.109 			"/>
			<polygon fill="#42BCED" points="568.528,426.268 596.717,410.062 624.566,426.111 596.717,443.109 			"/>
			<polygon fill="#42BCED" points="455.204,426.545 483.393,410.34 511.242,426.391 483.393,443.389 			"/>
			<polygon fill="#42BCED" points="399.32,426.268 427.51,410.062 455.359,426.111 427.51,443.109 			"/>
			<polygon fill="#42BCED" points="680.658,425.967 708.847,409.762 736.696,425.812 708.847,442.811 			"/>
			<polygon fill="#42BCED" points="708.411,475.578 736.6,459.373 764.449,475.424 736.6,492.422 			"/>
			<polygon fill="#42BCED" points="763.457,475.578 791.646,459.373 819.495,475.424 791.646,492.422 			"/>
			<polygon fill="#42BCED" points="596.111,475.717 624.3,459.512 652.149,475.562 624.3,492.561 			"/>
			<polygon fill="#42BCED" points="483.51,475.439 511.698,459.234 539.549,475.283 511.698,492.281 			"/>
			<polygon fill="#42BCED" points="540.229,475.439 568.416,459.234 596.266,475.283 568.416,492.281 			"/>
			<polygon fill="#42BCED" points="426.904,475.717 455.093,459.512 482.941,475.562 455.093,492.561 			"/>
			<polygon fill="#42BCED" points="652.357,475.141 680.546,458.936 708.396,474.986 680.546,491.982 			"/>
			<polygon fill="#42BCED" points="736.6,525.258 764.788,509.053 792.638,525.104 764.788,542.102 			"/>
			<polygon fill="#42BCED" points="791.646,525.258 819.834,509.053 847.684,525.104 819.834,542.102 			"/>
			<polygon fill="#42BCED" points="624.3,525.398 652.489,509.193 680.339,525.244 652.489,542.24 			"/>
			<polygon fill="#42BCED" points="511.698,525.119 539.887,508.914 567.736,524.965 539.887,541.963 			"/>
			<polygon fill="#42BCED" points="568.416,525.119 596.605,508.914 624.455,524.965 596.605,541.963 			"/>
			<polygon fill="#42BCED" points="455.093,525.398 483.281,509.193 511.131,525.244 483.281,542.24 			"/>
			<polygon fill="#42BCED" points="399.209,525.119 427.397,508.914 455.247,524.965 427.397,541.963 			"/>
			<polygon fill="#42BCED" points="680.546,524.82 708.734,508.617 736.584,524.666 708.734,541.664 			"/>
			<polygon fill="#42BCED" points="708.712,574.939 736.899,558.734 764.749,574.785 736.899,591.783 			"/>
			<polygon fill="#42BCED" points="763.758,574.939 791.946,558.734 819.795,574.785 791.946,591.783 			"/>
			<polygon fill="#42BCED" points="596.412,575.078 624.601,558.873 652.451,574.924 624.601,591.922 			"/>
			<polygon fill="#42BCED" points="483.811,574.801 511.999,558.596 539.848,574.646 511.999,591.645 			"/>
			<polygon fill="#42BCED" points="540.528,574.801 568.717,558.596 596.566,574.646 568.717,591.645 			"/>
			<polygon fill="#42BCED" points="427.205,575.078 455.393,558.873 483.242,574.924 455.393,591.922 			"/>
			<polygon fill="#42BCED" points="652.658,574.502 680.847,558.297 708.695,574.348 680.847,591.346 			"/>
			<polygon fill="#42BCED" points="482.674,274.827 482.674,241.913 539.051,275.603 510.871,291.854 			"/>
			<polygon fill="#42BCED" points="426.297,274.827 426.297,241.913 482.674,275.603 454.494,291.854 			"/>
			<polygon fill="#42BCED" points="398.108,325.357 398.108,292.445 454.656,325.707 426.307,343.377 			"/>
		</g>
	</g>
	<rect x="288.719" y="264.333" display="inline" fill="none" width="702.563" height="181.582"/>
	<text transform="matrix(1 0 0 1 288.7188 295.043)" display="inline" opacity="0.3"><tspan x="0" y="0" fill="#FFFFFF" font-family="'FuturaStd-Bold'" font-size="37">ICRI Urban IoT delivers research </tspan><tspan x="0" y="44.4" fill="#FFFFFF" font-family="'FuturaStd-Bold'" font-size="37">activity to demonstrate the compute </tspan><tspan x="0" y="88.801" fill="#FFFFFF" font-family="'FuturaStd-Bold'" font-size="37">fabric needed to support an urban </tspan><tspan x="0" y="133.201" fill="#FFFFFF" font-family="'FuturaStd-Bold'" font-size="37">Internet of Things at city scale.</tspan></text>
</g>
<g id="Layer_4" display="none">
</g>
<g id="bkg">
	<rect x="-8.097" y="-6.95" fill="#36A9E1" width="1297.369" height="695.281"/>
</g>
<g id="Layer_3">
	
		<line fill="none" stroke="#FFFFFF" stroke-width="0.94" stroke-miterlimit="10" x1="474.943" y1="-3.742" x2="474.943" y2="688.331"/>
	
		<line fill="none" stroke="#FFFFFF" stroke-width="0.94" stroke-miterlimit="10" x1="447.152" y1="-3.736" x2="447.152" y2="688.337"/>
	
		<line fill="none" stroke="#FFFFFF" stroke-width="0.94" stroke-miterlimit="10" x1="419.375" y1="-3.861" x2="419.375" y2="688.212"/>
	
		<line fill="none" stroke="#FFFFFF" stroke-width="0.94" stroke-miterlimit="10" x1="502.733" y1="-3.736" x2="502.733" y2="688.337"/>
	
		<line fill="none" stroke="#FFFFFF" stroke-width="0.94" stroke-miterlimit="10" x1="530.523" y1="-3.742" x2="530.523" y2="688.331"/>
	
		<line fill="none" stroke="#FFFFFF" stroke-width="0.94" stroke-miterlimit="10" x1="558.314" y1="-3.742" x2="558.314" y2="688.331"/>
	
		<line fill="none" stroke="#FFFFFF" stroke-width="0.94" stroke-miterlimit="10" x1="586.105" y1="-3.742" x2="586.105" y2="688.331"/>
	
		<line fill="none" stroke="#FFFFFF" stroke-width="0.94" stroke-miterlimit="10" x1="613.896" y1="-3.742" x2="613.896" y2="688.331"/>
	
		<line fill="none" stroke="#FFFFFF" stroke-width="0.94" stroke-miterlimit="10" x1="641.686" y1="-3.742" x2="641.686" y2="688.331"/>
	
		<line fill="none" stroke="#FFFFFF" stroke-width="0.94" stroke-miterlimit="10" x1="669.477" y1="-3.742" x2="669.477" y2="688.331"/>
	
		<line fill="none" stroke="#FFFFFF" stroke-width="0.94" stroke-miterlimit="10" x1="697.268" y1="-3.742" x2="697.268" y2="688.331"/>
	
		<line fill="none" stroke="#FFFFFF" stroke-width="0.94" stroke-miterlimit="10" x1="725.058" y1="-3.742" x2="725.058" y2="688.331"/>
	
		<line fill="none" stroke="#FFFFFF" stroke-width="0.94" stroke-miterlimit="10" x1="752.849" y1="-3.742" x2="752.849" y2="688.331"/>
	
		<line fill="none" stroke="#FFFFFF" stroke-width="0.94" stroke-miterlimit="10" x1="780.639" y1="-3.742" x2="780.639" y2="688.331"/>
	
		<line fill="none" stroke="#FFFFFF" stroke-width="0.94" stroke-miterlimit="10" x1="808.43" y1="-3.742" x2="808.43" y2="688.331"/>
	
		<line fill="none" stroke="#FFFFFF" stroke-width="0.94" stroke-miterlimit="10" x1="836.22" y1="-3.742" x2="836.22" y2="688.331"/>
</g>
<g id="Layer_1" display="none">
	<g id="XMLID_1_" display="inline">
		<g>
			<polygon fill="#105268" points="863.53,284.74 863.53,316.79 835.77,300.77 			"/>
			<polygon fill="#105268" points="863.53,188.58 863.53,220.63 835.77,204.61 			"/>
			<polygon fill="#105268" points="863.53,92.43 863.53,124.47 835.77,108.45 			"/>
			<polygon fill="#105268" points="863.53,124.47 835.77,140.5 835.77,108.45 			"/>
			<polygon fill="#105268" points="863.53,220.63 835.77,236.66 835.77,204.61 			"/>
			<polygon fill="#105268" points="863.53,316.79 835.77,332.82 835.77,300.77 			"/>
			<polygon fill="#105268" points="835.77,525.14 835.77,557.19 808.02,541.15 			"/>
			<polygon fill="#105268" points="835.77,428.98 835.77,461.03 808.02,445 			"/>
			<polygon fill="#42BCED" points="835.77,428.97 835.77,428.98 808.02,445 808.02,412.95 			"/>
			<polygon fill="#105268" points="835.77,332.82 835.77,364.87 808.02,348.84 			"/>
			<polygon fill="#105268" points="835.77,236.66 835.77,268.71 808.02,252.69 			"/>
			<polygon fill="#105268" points="835.77,140.5 835.77,172.55 808.02,156.52 			"/>
			<polygon fill="#105268" points="835.77,172.55 808.02,188.58 808.02,156.52 			"/>
			<polygon fill="#105268" points="835.77,268.71 808.02,284.74 808.02,252.69 			"/>
			<polygon fill="#105268" points="835.77,364.87 808.02,380.9 808.02,348.84 			"/>
			<polygon fill="#105268" points="835.77,461.03 808.02,477.05 808.02,445 			"/>
			<polygon fill="#42BCED" points="835.77,525.14 808.02,541.15 808.02,509.11 			"/>
			<polygon fill="#105268" points="835.77,557.19 808.02,573.22 808.02,541.15 			"/>
			<polygon fill="#105268" points="808.02,573.22 808.02,605.27 780.26,589.24 			"/>
			<polygon fill="#42BCED" points="808.02,509.11 808.02,541.15 780.26,525.14 			"/>
			<polygon fill="#105268" points="808.02,477.05 808.02,509.11 780.26,493.08 			"/>
			<polygon fill="#42BCED" points="808.02,412.95 808.02,445 780.26,428.97 			"/>
			<polygon fill="#105268" points="808.02,380.9 808.02,412.95 780.26,396.92 			"/>
			<polygon fill="#105268" points="808.02,284.74 808.02,316.79 780.26,300.77 			"/>
			<polygon fill="#105268" points="808.02,188.58 808.02,220.63 780.26,204.61 			"/>
			<polygon fill="#105268" points="808.02,92.43 808.02,124.47 780.26,108.45 			"/>
			<polygon fill="#105268" points="808.02,124.47 780.26,140.5 780.26,108.45 			"/>
			<polygon fill="#105268" points="808.02,220.63 780.26,236.66 780.26,204.61 			"/>
			<polygon fill="#105268" points="808.02,316.79 780.26,332.82 780.26,300.77 			"/>
			<polygon fill="#105268" points="808.02,412.95 780.26,428.97 780.26,396.92 			"/>
			<polygon fill="#42BCED" points="808.02,477.05 780.26,493.08 780.26,461.03 			"/>
			<polygon fill="#105268" points="808.02,509.11 780.26,525.14 780.26,493.08 			"/>
			<polygon fill="#42BCED" points="808.02,573.22 780.26,589.24 780.26,557.19 			"/>
			<polygon fill="#105268" points="808.02,605.27 780.26,621.29 780.26,589.24 			"/>
			<polygon fill="#42BCED" points="780.26,557.19 780.26,589.24 752.5,573.22 			"/>
			<polygon fill="#105268" points="780.26,525.14 780.26,557.19 752.5,541.15 			"/>
			<polygon fill="#42BCED" points="780.26,461.03 780.26,493.08 752.5,477.05 			"/>
			<polygon fill="#105268" points="780.26,428.98 780.26,461.03 752.5,445 			"/>
			<polygon fill="#42BCED" points="780.26,428.97 780.26,428.98 752.5,445 752.5,412.95 			"/>
			<polygon fill="#105268" points="780.26,332.82 780.26,364.87 752.5,348.84 			"/>
			<polygon fill="#105268" points="780.26,236.66 780.26,268.71 752.5,252.69 			"/>
			<polygon fill="#105268" points="780.26,140.5 780.26,172.55 752.5,156.52 			"/>
			<polygon fill="#105268" points="780.26,172.55 752.5,188.58 752.5,156.52 			"/>
			<polygon fill="#105268" points="780.26,268.71 752.5,284.74 752.5,252.69 			"/>
			<polygon fill="#105268" points="780.26,364.87 752.5,380.9 752.5,348.84 			"/>
			<polygon fill="#105268" points="780.26,461.03 752.5,477.05 752.5,445 			"/>
			<polygon fill="#42BCED" points="780.26,525.14 752.5,541.15 752.5,509.11 			"/>
			<polygon fill="#105268" points="780.26,557.19 752.5,573.22 752.5,541.15 			"/>
			<polygon fill="#105268" points="752.5,573.22 752.5,605.27 724.74,589.24 			"/>
			<polygon fill="#42BCED" points="752.5,509.11 752.5,541.15 724.74,525.14 			"/>
			<polygon fill="#105268" points="752.5,477.05 752.5,509.11 724.74,493.08 			"/>
			<polygon fill="#42BCED" points="752.5,412.95 752.5,445 724.74,428.97 			"/>
			<polygon fill="#105268" points="752.5,380.9 752.5,412.95 724.74,396.92 			"/>
			<polygon fill="#105268" points="752.5,284.74 752.5,316.79 724.74,300.77 			"/>
			<polygon fill="#105268" points="752.5,188.58 752.5,220.63 724.74,204.61 			"/>
			<polygon fill="#105268" points="752.5,220.63 724.74,236.66 724.74,204.61 			"/>
			<polygon fill="#105268" points="752.5,316.79 724.74,332.82 724.74,300.77 			"/>
			<polygon fill="#42BCED" points="752.5,380.9 724.74,396.92 724.74,364.87 			"/>
			<polygon fill="#105268" points="752.5,412.95 724.74,428.97 724.74,396.92 			"/>
			<polygon fill="#42BCED" points="752.5,477.05 724.74,493.08 724.74,461.03 			"/>
			<polygon fill="#105268" points="752.5,509.11 724.74,525.14 724.74,493.08 			"/>
			<polygon fill="#42BCED" points="752.5,573.22 724.74,589.24 724.74,557.19 			"/>
			<polygon fill="#105268" points="752.5,605.27 724.74,621.29 724.74,589.24 			"/>
			<polygon fill="#42BCED" points="724.74,557.19 724.74,589.24 696.98,573.22 			"/>
			<polygon fill="#105268" points="724.74,525.14 724.74,557.19 696.98,541.15 			"/>
			<polygon fill="#42BCED" points="724.74,461.03 724.74,493.08 696.98,477.05 			"/>
			<polygon fill="#105268" points="724.74,428.98 724.74,461.03 696.98,445 			"/>
			<polygon fill="#42BCED" points="724.74,428.97 724.74,428.98 696.98,445 696.98,412.95 			"/>
			<polygon fill="#42BCED" points="724.74,364.87 724.74,396.92 696.98,380.9 			"/>
			<polygon fill="#105268" points="724.74,332.82 724.74,364.87 696.98,348.84 			"/>
			<polygon fill="#105268" points="724.74,236.66 724.74,268.71 696.98,252.69 			"/>
			<polygon fill="#105268" points="724.74,140.5 724.74,172.55 696.98,156.52 			"/>
			<polygon fill="#105268" points="724.74,172.55 696.98,188.58 696.98,156.52 			"/>
			<polygon fill="#105268" points="724.74,268.71 696.98,284.74 696.98,252.69 			"/>
			<polygon fill="#105268" points="724.74,364.87 696.98,380.9 696.98,348.84 			"/>
			<polygon fill="#105268" points="724.74,461.03 696.98,477.05 696.98,445 			"/>
			<polygon fill="#42BCED" points="724.74,525.14 696.98,541.15 696.98,509.11 			"/>
			<polygon fill="#105268" points="724.74,557.19 696.98,573.22 696.98,541.15 			"/>
			<polygon fill="#105268" points="696.98,573.22 696.98,605.27 669.22,589.24 			"/>
			<polygon fill="#42BCED" points="696.98,509.11 696.98,541.15 669.22,525.14 			"/>
			<polygon fill="#105268" points="696.98,477.05 696.98,509.11 669.22,493.08 			"/>
			<polygon fill="#42BCED" points="696.98,412.95 696.98,445 669.22,428.97 			"/>
			<polygon fill="#105268" points="696.98,380.9 696.98,412.95 669.22,396.92 			"/>
			<polygon fill="#105268" points="696.98,284.74 696.98,316.79 669.22,300.77 			"/>
			<polygon fill="#105268" points="696.98,188.58 696.98,220.63 669.22,204.61 			"/>
			<polygon fill="#105268" points="696.98,220.63 669.22,236.66 669.22,204.61 			"/>
			<polygon fill="#105268" points="696.98,316.79 669.22,332.82 669.22,300.77 			"/>
			<polygon fill="#42BCED" points="696.98,380.9 669.22,396.92 669.22,364.87 			"/>
			<polygon fill="#105268" points="696.98,412.95 669.22,428.97 669.22,396.92 			"/>
			<polygon fill="#42BCED" points="696.98,477.05 669.22,493.08 669.22,461.03 			"/>
			<polygon fill="#105268" points="696.98,509.11 669.22,525.14 669.22,493.08 			"/>
			<polygon fill="#42BCED" points="696.98,573.22 669.22,589.24 669.22,557.19 			"/>
			<polygon fill="#105268" points="696.98,605.27 669.22,621.29 669.22,589.24 			"/>
			<polygon fill="#42BCED" points="669.22,557.19 669.22,589.24 641.47,573.22 			"/>
			<polygon fill="#105268" points="669.22,525.14 669.22,557.19 641.47,541.15 			"/>
			<polygon fill="#42BCED" points="669.22,461.03 669.22,493.08 641.47,477.05 			"/>
			<polygon fill="#105268" points="669.22,428.98 669.22,461.03 641.47,445 			"/>
			<polygon fill="#42BCED" points="669.22,428.97 669.22,428.98 641.47,445 641.47,412.95 			"/>
			<polygon fill="#42BCED" points="669.22,364.87 669.22,396.92 641.47,380.9 			"/>
			<polygon fill="#105268" points="669.22,332.82 669.22,364.87 641.47,348.84 			"/>
			<polygon fill="#105268" points="669.22,236.66 669.22,268.71 641.47,252.69 			"/>
			<polygon fill="#105268" points="669.22,268.71 641.47,284.74 641.47,252.69 			"/>
			<polygon fill="#42BCED" points="669.22,332.82 641.47,348.84 641.47,316.79 			"/>
			<polygon fill="#105268" points="669.22,364.87 641.47,380.9 641.47,348.84 			"/>
			<polygon fill="#105268" points="669.22,461.03 641.47,477.05 641.47,445 			"/>
			<polygon fill="#42BCED" points="669.22,525.14 641.47,541.15 641.47,509.11 			"/>
			<polygon fill="#105268" points="669.22,557.19 641.47,573.22 641.47,541.15 			"/>
			<polygon fill="#105268" points="641.47,573.22 641.47,605.27 613.71,589.24 			"/>
			<polygon fill="#42BCED" points="641.47,509.11 641.47,541.15 613.71,525.14 			"/>
			<polygon fill="#105268" points="641.47,477.05 641.47,509.11 613.71,493.08 			"/>
			<polygon fill="#42BCED" points="641.47,412.95 641.47,445 613.71,428.97 			"/>
			<polygon fill="#105268" points="641.47,380.9 641.47,412.95 613.71,396.92 			"/>
			<polygon fill="#42BCED" points="641.47,316.79 641.47,348.84 613.71,332.82 			"/>
			<polygon fill="#105268" points="641.47,284.74 641.47,316.79 613.71,300.77 			"/>
			<polygon fill="#105268" points="641.47,188.58 641.47,220.63 613.71,204.61 			"/>
			<polygon fill="#105268" points="641.47,220.63 613.71,236.66 613.71,204.61 			"/>
			<polygon fill="#105268" points="641.47,316.79 613.71,332.82 613.71,300.77 			"/>
			<polygon fill="#42BCED" points="641.47,380.9 613.71,396.92 613.71,364.87 			"/>
			<polygon fill="#105268" points="641.47,412.95 613.71,428.97 613.71,396.92 			"/>
			<polygon fill="#42BCED" points="641.47,477.05 613.71,493.08 613.71,461.03 			"/>
			<polygon fill="#105268" points="641.47,509.11 613.71,525.14 613.71,493.08 			"/>
			<polygon fill="#42BCED" points="641.47,573.22 613.71,589.24 613.71,557.19 			"/>
			<polygon fill="#105268" points="641.47,605.27 613.71,621.29 613.71,589.24 			"/>
			<polygon fill="#42BCED" points="613.71,557.19 613.71,589.24 585.95,573.22 			"/>
			<polygon fill="#105268" points="613.71,525.14 613.71,557.19 585.95,541.15 			"/>
			<polygon fill="#42BCED" points="613.71,461.03 613.71,493.08 585.95,477.05 			"/>
			<polygon fill="#105268" points="613.71,428.98 613.71,461.03 585.95,445 			"/>
			<polygon fill="#42BCED" points="613.71,428.97 613.71,428.98 585.95,445 585.95,412.95 			"/>
			<polygon fill="#42BCED" points="613.71,364.87 613.71,396.92 585.95,380.9 			"/>
			<polygon fill="#105268" points="613.71,332.82 613.71,364.87 585.95,348.84 			"/>
			<polygon fill="#105268" points="613.71,236.66 613.71,268.71 585.95,252.69 			"/>
			<polygon fill="#105268" points="613.71,268.71 585.95,284.74 585.95,252.69 			"/>
			<polygon fill="#42BCED" points="613.71,332.82 585.95,348.84 585.95,316.79 			"/>
			<polygon fill="#105268" points="613.71,364.87 585.95,380.9 585.95,348.84 			"/>
			<polygon fill="#105268" points="613.71,461.03 585.95,477.05 585.95,445 			"/>
			<polygon fill="#42BCED" points="613.71,525.14 585.95,541.15 585.95,509.11 			"/>
			<polygon fill="#105268" points="613.71,557.19 585.95,573.22 585.95,541.15 			"/>
			<polygon fill="#105268" points="585.95,573.22 585.95,605.27 558.19,589.24 			"/>
			<polygon fill="#42BCED" points="585.95,509.11 585.95,541.15 558.19,525.14 			"/>
			<polygon fill="#105268" points="585.95,477.05 585.95,509.11 558.19,493.08 			"/>
			<polygon fill="#42BCED" points="585.95,412.95 585.95,445 558.19,428.97 			"/>
			<polygon fill="#105268" points="585.95,380.9 585.95,412.95 558.19,396.92 			"/>
			<polygon fill="#42BCED" points="585.95,316.79 585.95,348.84 558.19,332.82 			"/>
			<polygon fill="#105268" points="585.95,284.74 585.95,316.79 558.19,300.77 			"/>
			<polygon fill="#42BCED" points="585.95,284.74 558.19,300.77 558.19,268.71 			"/>
			<polygon fill="#105268" points="585.95,316.79 558.19,332.82 558.19,300.77 			"/>
			<polygon fill="#42BCED" points="585.95,380.9 558.19,396.92 558.19,364.87 			"/>
			<polygon fill="#105268" points="585.95,412.95 558.19,428.97 558.19,396.92 			"/>
			<polygon fill="#42BCED" points="585.95,477.05 558.19,493.08 558.19,461.03 			"/>
			<polygon fill="#105268" points="585.95,509.11 558.19,525.14 558.19,493.08 			"/>
			<polygon fill="#42BCED" points="585.95,573.22 558.19,589.24 558.19,557.19 			"/>
			<polygon fill="#105268" points="585.95,605.27 558.19,621.29 558.19,589.24 			"/>
			<polygon fill="#42BCED" points="558.19,557.19 558.19,589.24 530.43,573.22 			"/>
			<polygon fill="#105268" points="558.19,525.14 558.19,557.19 530.43,541.15 			"/>
			<polygon fill="#42BCED" points="558.19,461.03 558.19,493.08 530.43,477.05 			"/>
			<polygon fill="#105268" points="558.19,428.98 558.19,461.03 530.43,445 			"/>
			<polygon fill="#42BCED" points="558.19,428.97 558.19,428.98 530.43,445 530.43,412.95 			"/>
			<polygon fill="#42BCED" points="558.19,364.87 558.19,396.92 530.43,380.9 			"/>
			<polygon fill="#105268" points="558.19,332.82 558.19,364.87 530.43,348.84 			"/>
			<polygon fill="#42BCED" points="558.19,268.71 558.19,300.77 530.43,284.74 			"/>
			<polygon fill="#105268" points="558.19,236.66 558.19,268.71 530.43,252.69 			"/>
			<polygon fill="#105268" points="558.19,268.71 530.43,284.74 530.43,252.69 			"/>
			<polygon fill="#42BCED" points="558.19,332.82 530.43,348.84 530.43,316.79 			"/>
			<polygon fill="#105268" points="558.19,364.87 530.43,380.9 530.43,348.84 			"/>
			<polygon fill="#105268" points="558.19,461.03 530.43,477.05 530.43,445 			"/>
			<polygon fill="#42BCED" points="558.19,525.14 530.43,541.15 530.43,509.11 			"/>
			<polygon fill="#105268" points="558.19,557.19 530.43,573.22 530.43,541.15 			"/>
			<polygon fill="#105268" points="530.43,573.22 530.43,605.27 502.67,589.24 			"/>
			<polygon fill="#42BCED" points="530.43,509.11 530.43,541.15 502.67,525.14 			"/>
			<polygon fill="#105268" points="530.43,477.05 530.43,509.11 502.67,493.08 			"/>
			<polygon fill="#42BCED" points="530.43,412.95 530.43,445 502.67,428.97 			"/>
			<polygon fill="#105268" points="530.43,380.9 530.43,412.95 502.67,396.92 			"/>
			<polygon fill="#42BCED" points="530.43,316.79 530.43,348.84 502.67,332.82 			"/>
			<polygon fill="#105268" points="530.43,284.74 530.43,316.79 502.67,300.77 			"/>
			<polygon fill="#42BCED" points="530.43,284.74 502.67,300.77 502.67,268.71 			"/>
			<polygon fill="#105268" points="530.43,316.79 502.67,332.82 502.67,300.77 			"/>
			<polygon fill="#42BCED" points="530.43,380.9 502.67,396.92 502.67,364.87 			"/>
			<polygon fill="#105268" points="530.43,412.95 502.67,428.97 502.67,396.92 			"/>
			<polygon fill="#42BCED" points="530.43,477.05 502.67,493.08 502.67,461.03 			"/>
			<polygon fill="#105268" points="530.43,509.11 502.67,525.14 502.67,493.08 			"/>
			<polygon fill="#42BCED" points="530.43,573.22 502.67,589.24 502.67,557.19 			"/>
			<polygon fill="#105268" points="530.43,605.27 502.67,621.29 502.67,589.24 			"/>
			<polygon fill="#42BCED" points="502.67,557.19 502.67,589.24 474.91,573.22 			"/>
			<polygon fill="#105268" points="502.67,525.14 502.67,557.19 474.91,541.15 			"/>
			<polygon fill="#42BCED" points="502.67,461.03 502.67,493.08 474.91,477.05 			"/>
			<polygon fill="#105268" points="502.67,428.98 502.67,461.03 474.91,445 			"/>
			<polygon fill="#42BCED" points="502.67,428.97 502.67,428.98 474.91,445 474.91,412.95 			"/>
			<polygon fill="#42BCED" points="502.67,364.87 502.67,396.92 474.91,380.9 			"/>
			<polygon fill="#105268" points="502.67,332.82 502.67,364.87 474.91,348.84 			"/>
			<polygon fill="#42BCED" points="502.67,268.71 502.67,300.77 474.91,284.74 			"/>
			<polygon fill="#42BCED" points="502.67,236.66 502.67,268.71 474.91,252.69 			"/>
			<polygon fill="#42BCED" points="502.67,236.66 474.91,252.69 474.91,220.63 			"/>
			<polygon fill="#42BCED" points="502.67,268.71 474.91,284.74 474.91,252.69 			"/>
			<polygon fill="#42BCED" points="502.67,332.82 474.91,348.84 474.91,316.79 			"/>
			<polygon fill="#105268" points="502.67,364.87 474.91,380.9 474.91,348.84 			"/>
			<polygon fill="#105268" points="502.67,461.03 474.91,477.05 474.91,445 			"/>
			<polygon fill="#42BCED" points="502.67,525.14 474.91,541.15 474.91,509.11 			"/>
			<polygon fill="#105268" points="502.67,557.19 474.91,573.22 474.91,541.15 			"/>
			<polygon fill="#105268" points="474.91,573.22 474.91,605.27 447.15,589.24 			"/>
			<polygon fill="#42BCED" points="474.91,509.11 474.91,541.15 447.15,525.14 			"/>
			<polygon fill="#105268" points="474.91,477.05 474.91,509.11 447.15,493.08 			"/>
			<polygon fill="#42BCED" points="474.91,412.95 474.91,445 447.15,428.97 			"/>
			<polygon fill="#105268" points="474.91,380.9 474.91,412.95 447.15,396.92 			"/>
			<polygon fill="#42BCED" points="474.91,316.79 474.91,348.84 447.15,332.82 			"/>
			<polygon fill="#105268" points="474.91,284.74 474.91,316.79 447.15,300.77 			"/>
			<polygon fill="#42BCED" points="474.91,220.63 474.91,252.69 447.15,236.66 			"/>
			<polygon fill="#42BCED" points="474.91,220.63 447.15,236.66 447.15,204.61 			"/>
			<polygon fill="#42BCED" points="474.91,284.74 447.15,300.77 447.15,268.71 			"/>
			<polygon fill="#105268" points="474.91,316.79 447.15,332.82 447.15,300.77 			"/>
			<polygon fill="#42BCED" points="474.91,380.9 447.15,396.92 447.15,364.87 			"/>
			<polygon fill="#105268" points="474.91,412.95 447.15,428.97 447.15,396.92 			"/>
			<polygon fill="#42BCED" points="474.91,477.05 447.15,493.08 447.15,461.03 			"/>
			<polygon fill="#105268" points="474.91,509.11 447.15,525.14 447.15,493.08 			"/>
			<polygon fill="#42BCED" points="474.91,573.22 447.15,589.24 447.15,557.19 			"/>
			<polygon fill="#105268" points="474.91,605.27 447.15,621.29 447.15,589.24 			"/>
			<polygon fill="#42BCED" points="447.15,557.19 447.15,589.24 446.91,589.1 446.91,557.33 			"/>
			<polygon fill="#42BCED" points="447.15,268.71 447.15,300.77 446.91,300.63 446.91,268.85 			"/>
			<polygon fill="#42BCED" points="446.91,557.33 446.91,589.1 419.4,573.22 			"/>
			<polygon fill="#105268" points="446.91,557.05 446.91,557.33 419.4,573.22 419.4,541.15 			"/>
			<polygon fill="#105268" points="446.91,525.28 446.91,557.05 419.4,541.15 			"/>
			<polygon fill="#42BCED" points="446.91,525 446.91,525.28 419.4,541.15 419.4,509.11 			"/>
			<polygon fill="#42BCED" points="446.91,461.17 446.91,492.94 419.4,477.05 			"/>
			<polygon fill="#105268" points="446.91,460.89 446.91,461.17 419.4,477.05 419.4,445 			"/>
			<polygon fill="#105268" points="446.91,429.12 446.91,460.89 419.4,445 			"/>
			<polygon fill="#42BCED" points="446.91,428.83 446.91,429.12 419.4,445 419.4,412.95 			"/>
			<polygon fill="#42BCED" points="446.91,365.01 446.91,396.78 419.4,380.9 			"/>
			<polygon fill="#105268" points="446.91,364.73 446.91,365.01 419.4,380.9 419.4,348.84 			"/>
			<polygon fill="#105268" points="446.91,332.96 446.91,364.73 419.4,348.84 			"/>
			<polygon fill="#42BCED" points="446.91,332.68 446.91,332.96 419.4,348.84 419.4,316.79 			"/>
			<polygon fill="#42BCED" points="446.91,268.85 446.91,300.63 419.4,284.74 			"/>
			<polygon fill="#42BCED" points="446.91,268.57 446.91,268.85 419.4,284.74 419.4,252.69 			"/>
			<polygon fill="#42BCED" points="446.91,236.8 446.91,268.57 419.4,252.69 			"/>
			<polygon fill="#42BCED" points="446.91,236.52 446.91,236.8 419.4,252.69 419.4,220.63 			"/>
			<polygon fill="#42BCED" points="419.4,509.11 419.4,541.15 418.91,540.87 418.91,509.39 			"/>
			<polygon fill="#42BCED" points="418.91,509.39 418.91,540.87 391.63,525.14 			"/>
			<polygon fill="#42BCED" points="418.91,413.23 418.91,444.72 391.63,428.97 			"/>
			<polygon fill="#42BCED" points="418.91,349.12 418.91,380.62 391.63,364.87 			"/>
			<polygon fill="#42BCED" points="418.91,348.56 418.91,349.12 391.63,364.87 391.63,332.82 			"/>
			<polygon fill="#42BCED" points="418.91,317.07 418.91,348.56 391.63,332.82 			"/>
			<polygon fill="#42BCED" points="418.91,316.51 418.91,317.07 391.63,332.82 391.63,300.77 			"/>
			<polygon fill="#42BCED" points="418.91,285.02 418.91,316.51 391.63,300.77 			"/>
			<polygon fill="#42BCED" points="418.91,284.46 418.91,285.02 391.63,300.77 391.63,268.71 			"/>
			<polygon fill="#42BCED" points="418.91,188.86 418.91,220.35 391.63,204.61 			"/>
			<polygon fill="#42BCED" points="418.91,188.3 418.91,188.86 391.63,204.61 391.63,172.55 			"/>
		</g>
	</g>
</g>
<g id="Layer_1_copy">
	<g>
		<polygon fill="none" points="696.98,477.05 696.98,509.11 724.74,525.14 724.74,493.08 		"/>
		<polygon fill="none" points="780.26,525.14 780.26,493.08 752.5,477.05 752.5,509.11 		"/>
		<polygon fill="none" points="613.71,525.14 613.71,557.19 641.47,573.22 641.47,541.15 		"/>
		<polygon fill="none" points="724.74,525.14 724.74,557.19 752.5,573.22 752.5,541.15 		"/>
		<polygon fill="none" points="558.19,525.14 558.19,557.19 585.95,573.22 585.95,541.15 		"/>
		<polygon fill="none" points="585.95,477.05 585.95,509.11 613.71,525.14 613.71,493.08 		"/>
		<polygon fill="none" points="669.22,525.14 669.22,557.19 696.98,573.22 696.98,541.15 		"/>
		<polygon fill="none" points="641.47,477.05 641.47,509.11 669.22,525.14 669.22,493.08 		"/>
		<polygon fill="none" points="641.47,380.9 641.47,348.84 613.71,332.82 613.71,364.87 		"/>
		<polygon fill="none" points="780.26,525.14 780.26,557.19 808.02,573.22 808.02,541.15 		"/>
		<polygon fill="none" points="558.19,332.82 558.19,300.77 530.43,284.74 530.43,316.79 		"/>
		<polygon fill="none" points="502.67,525.14 502.67,493.08 474.91,477.05 474.91,509.11 		"/>
		<polygon fill="none" points="502.67,332.82 502.67,300.77 474.91,284.74 474.91,316.79 		"/>
		<polygon fill="none" points="502.67,525.14 502.67,557.19 530.43,573.22 530.43,541.15 		"/>
		<polygon fill="none" points="724.74,428.97 724.74,396.92 696.98,380.9 696.98,412.95 		"/>
		<polygon fill="none" points="724.74,461.03 752.5,477.05 752.5,445 724.74,428.97 724.74,428.98 		"/>
		<polygon fill="none" points="558.19,428.97 558.19,428.98 558.19,461.03 585.95,477.05 585.95,445 		"/>
		<polygon fill="none" points="502.67,428.97 502.67,396.92 474.91,380.9 474.91,412.95 		"/>
		<polygon fill="none" points="585.95,380.9 585.95,348.84 558.19,332.82 558.19,364.87 		"/>
		<polygon fill="none" points="780.26,461.03 808.02,477.05 808.02,445 780.26,428.97 780.26,428.98 		"/>
		<polygon fill="none" points="613.71,428.97 613.71,428.98 613.71,461.03 641.47,477.05 641.47,445 		"/>
		<polygon fill="none" points="669.22,461.03 696.98,477.05 696.98,445 669.22,428.97 669.22,428.98 		"/>
		<polygon fill="none" points="669.22,428.97 669.22,396.92 641.47,380.9 641.47,412.95 		"/>
		<polygon fill="none" points="613.71,428.97 613.71,396.92 585.95,380.9 585.95,412.95 		"/>
		<polygon fill="none" points="558.19,428.97 558.19,396.92 530.43,380.9 530.43,412.95 		"/>
		<polygon fill="none" points="502.67,428.97 502.67,428.98 502.67,461.03 530.43,477.05 530.43,445 		"/>
		<polygon fill="none" points="530.43,477.05 530.43,509.11 558.19,525.14 558.19,493.08 		"/>
		<polygon fill="none" points="502.67,332.82 502.67,364.87 530.43,380.9 530.43,348.84 		"/>
		<polygon fill="#105268" points="863.53,284.74 835.77,300.77 835.77,332.82 863.53,316.79 		"/>
		<polygon fill="#105268" points="863.53,188.58 835.77,204.61 835.77,236.66 863.53,220.63 		"/>
		<polygon fill="#105268" points="863.53,92.43 835.77,108.45 835.77,140.5 863.53,124.47 		"/>
		<polygon fill="#42BCED" points="835.77,428.98 835.77,428.97 808.02,412.95 780.26,428.97 808.02,445 		"/>
		<polygon fill="#105268" points="835.77,332.82 808.02,348.84 808.02,380.9 835.77,364.87 		"/>
		<polygon fill="#105268" points="835.77,236.66 808.02,252.69 808.02,284.74 835.77,268.71 		"/>
		<polygon fill="#105268" points="835.77,140.5 808.02,156.52 808.02,188.58 835.77,172.55 		"/>
		<polygon fill="#105268" points="808.02,477.05 835.77,461.03 835.77,428.98 808.02,445 		"/>
		<polygon fill="#105268" points="808.02,573.22 835.77,557.19 835.77,525.14 808.02,541.15 		"/>
		<polygon fill="#42BCED" points="808.02,541.15 835.77,525.14 808.02,509.11 780.26,525.14 		"/>
		<polygon fill="#105268" points="808.02,380.9 780.26,396.92 780.26,428.97 808.02,412.95 		"/>
		<polygon fill="#105268" points="808.02,284.74 780.26,300.77 780.26,332.82 808.02,316.79 		"/>
		<polygon fill="#105268" points="808.02,188.58 780.26,204.61 780.26,236.66 808.02,220.63 		"/>
		<polygon fill="#105268" points="808.02,92.43 780.26,108.45 780.26,140.5 808.02,124.47 		"/>
		<polygon fill="#105268" points="780.26,525.14 808.02,509.11 808.02,477.05 780.26,493.08 		"/>
		<polygon fill="#105268" points="780.26,621.29 808.02,605.27 808.02,573.22 780.26,589.24 		"/>
		<polygon fill="#42BCED" points="752.5,573.22 780.26,589.24 808.02,573.22 780.26,557.19 		"/>
		<polygon fill="#105268" points="780.26,525.14 752.5,541.15 752.5,573.22 780.26,557.19 		"/>
		<polygon fill="#42BCED" points="752.5,477.05 780.26,493.08 808.02,477.05 780.26,461.03 		"/>
		<polygon fill="#105268" points="780.26,332.82 752.5,348.84 752.5,380.9 780.26,364.87 		"/>
		<polygon fill="#105268" points="780.26,236.66 752.5,252.69 752.5,284.74 780.26,268.71 		"/>
		<polygon fill="#105268" points="780.26,140.5 752.5,156.52 752.5,188.58 780.26,172.55 		"/>
		<polygon fill="#105268" points="780.26,461.03 780.26,428.98 752.5,445 752.5,477.05 		"/>
		<polygon fill="#42BCED" points="724.74,525.14 752.5,541.15 780.26,525.14 752.5,509.11 		"/>
		<polygon fill="#42BCED" points="752.5,445 780.26,428.98 780.26,428.97 752.5,412.95 724.74,428.97 		"/>
		<polygon fill="#105268" points="752.5,284.74 724.74,300.77 724.74,332.82 752.5,316.79 		"/>
		<polygon fill="#105268" points="752.5,188.58 724.74,204.61 724.74,236.66 752.5,220.63 		"/>
		<polygon fill="#105268" points="724.74,428.97 752.5,412.95 752.5,380.9 724.74,396.92 		"/>
		<polygon fill="#105268" points="724.74,525.14 752.5,509.11 752.5,477.05 724.74,493.08 		"/>
		<polygon fill="#105268" points="724.74,621.29 752.5,605.27 752.5,573.22 724.74,589.24 		"/>
		<polygon fill="#42BCED" points="696.98,573.22 724.74,589.24 752.5,573.22 724.74,557.19 		"/>
		<polygon fill="#105268" points="724.74,525.14 696.98,541.15 696.98,573.22 724.74,557.19 		"/>
		<polygon fill="#42BCED" points="696.98,477.05 724.74,493.08 752.5,477.05 724.74,461.03 		"/>
		<polygon fill="#42BCED" points="724.74,396.92 752.5,380.9 724.74,364.87 696.98,380.9 		"/>
		<polygon fill="#105268" points="696.98,348.84 696.98,380.9 724.74,364.87 724.74,332.82 		"/>
		<polygon fill="#105268" points="724.74,236.66 696.98,252.69 696.98,284.74 724.74,268.71 		"/>
		<polygon fill="#105268" points="724.74,140.5 696.98,156.52 696.98,188.58 724.74,172.55 		"/>
		<polygon fill="#105268" points="724.74,461.03 724.74,428.98 696.98,445 696.98,477.05 		"/>
		<polygon fill="#42BCED" points="669.22,525.14 696.98,541.15 724.74,525.14 696.98,509.11 		"/>
		<polygon fill="#105268" points="696.98,477.05 669.22,493.08 669.22,525.14 696.98,509.11 		"/>
		<polygon fill="#42BCED" points="669.22,428.97 696.98,445 724.74,428.98 724.74,428.97 696.98,412.95 		"/>
		<polygon fill="#105268" points="696.98,284.74 669.22,300.77 669.22,332.82 696.98,316.79 		"/>
		<polygon fill="#105268" points="696.98,188.58 669.22,204.61 669.22,236.66 696.98,220.63 		"/>
		<polygon fill="#105268" points="669.22,428.97 696.98,412.95 696.98,380.9 669.22,396.92 		"/>
		<polygon fill="#105268" points="669.22,621.29 696.98,605.27 696.98,573.22 669.22,589.24 		"/>
		<polygon fill="#42BCED" points="641.47,573.22 669.22,589.24 696.98,573.22 669.22,557.19 		"/>
		<polygon fill="#105268" points="669.22,525.14 641.47,541.15 641.47,573.22 669.22,557.19 		"/>
		<polygon fill="#42BCED" points="641.47,477.05 669.22,493.08 696.98,477.05 669.22,461.03 		"/>
		<polygon fill="#105268" points="669.22,428.98 641.47,445 641.47,477.05 669.22,461.03 		"/>
		<polygon fill="#42BCED" points="669.22,396.92 696.98,380.9 669.22,364.87 641.47,380.9 		"/>
		<polygon fill="#105268" points="669.22,236.66 641.47,252.69 641.47,284.74 669.22,268.71 		"/>
		<polygon fill="#42BCED" points="669.22,332.82 641.47,316.79 613.71,332.82 641.47,348.84 		"/>
		<polygon fill="#105268" points="641.47,380.9 669.22,364.87 669.22,332.82 641.47,348.84 		"/>
		<polygon fill="#42BCED" points="613.71,525.14 641.47,541.15 669.22,525.14 641.47,509.11 		"/>
		<polygon fill="#105268" points="641.47,477.05 613.71,493.08 613.71,525.14 641.47,509.11 		"/>
		<polygon fill="#42BCED" points="613.71,428.97 641.47,445 669.22,428.98 669.22,428.97 641.47,412.95 		"/>
		<polygon fill="#105268" points="641.47,284.74 613.71,300.77 613.71,332.82 641.47,316.79 		"/>
		<polygon fill="#105268" points="641.47,188.58 613.71,204.61 613.71,236.66 641.47,220.63 		"/>
		<polygon fill="#42BCED" points="641.47,380.9 613.71,364.87 585.95,380.9 613.71,396.92 		"/>
		<polygon fill="#105268" points="613.71,428.97 641.47,412.95 641.47,380.9 613.71,396.92 		"/>
		<polygon fill="#105268" points="613.71,621.29 641.47,605.27 641.47,573.22 613.71,589.24 		"/>
		<polygon fill="#42BCED" points="585.95,573.22 613.71,589.24 641.47,573.22 613.71,557.19 		"/>
		<polygon fill="#105268" points="613.71,525.14 585.95,541.15 585.95,573.22 613.71,557.19 		"/>
		<polygon fill="#42BCED" points="585.95,477.05 613.71,493.08 641.47,477.05 613.71,461.03 		"/>
		<polygon fill="#105268" points="613.71,428.98 585.95,445 585.95,477.05 613.71,461.03 		"/>
		<polygon fill="#42BCED" points="613.71,428.98 613.71,428.97 585.95,412.95 558.19,428.97 585.95,445 		"/>
		<polygon fill="#105268" points="613.71,236.66 585.95,252.69 585.95,284.74 613.71,268.71 		"/>
		<polygon fill="#105268" points="585.95,380.9 613.71,364.87 613.71,332.82 585.95,348.84 		"/>
		<polygon fill="#42BCED" points="558.19,525.14 585.95,541.15 613.71,525.14 585.95,509.11 		"/>
		<polygon fill="#105268" points="585.95,477.05 558.19,493.08 558.19,525.14 585.95,509.11 		"/>
		<polygon fill="#42BCED" points="585.95,348.84 613.71,332.82 585.95,316.79 558.19,332.82 		"/>
		<polygon fill="#42BCED" points="585.95,284.74 558.19,268.71 530.43,284.74 558.19,300.77 		"/>
		<polygon fill="#105268" points="558.19,332.82 585.95,316.79 585.95,284.74 558.19,300.77 		"/>
		<polygon fill="#42BCED" points="585.95,380.9 558.19,364.87 530.43,380.9 558.19,396.92 		"/>
		<polygon fill="#105268" points="558.19,428.97 585.95,412.95 585.95,380.9 558.19,396.92 		"/>
		<polygon fill="#42BCED" points="585.95,477.05 558.19,461.03 530.43,477.05 558.19,493.08 		"/>
		<polygon fill="#105268" points="558.19,621.29 585.95,605.27 585.95,573.22 558.19,589.24 		"/>
		<polygon fill="#42BCED" points="530.43,573.22 558.19,589.24 585.95,573.22 558.19,557.19 		"/>
		<polygon fill="#105268" points="558.19,525.14 530.43,541.15 530.43,573.22 558.19,557.19 		"/>
		<polygon fill="#105268" points="558.19,428.98 530.43,445 530.43,477.05 558.19,461.03 		"/>
		<polygon fill="#42BCED" points="558.19,428.98 558.19,428.97 530.43,412.95 502.67,428.97 530.43,445 		"/>
		<polygon fill="#105268" points="558.19,332.82 530.43,348.84 530.43,380.9 558.19,364.87 		"/>
		<polygon fill="#105268" points="558.19,236.66 530.43,252.69 530.43,284.74 558.19,268.71 		"/>
		<polygon fill="#42BCED" points="558.19,332.82 530.43,316.79 502.67,332.82 530.43,348.84 		"/>
		<polygon fill="#42BCED" points="502.67,525.14 530.43,541.15 558.19,525.14 530.43,509.11 		"/>
		<polygon fill="#105268" points="530.43,477.05 502.67,493.08 502.67,525.14 530.43,509.11 		"/>
		<polygon fill="#105268" points="530.43,380.9 502.67,396.92 502.67,428.97 530.43,412.95 		"/>
		<polygon fill="#42BCED" points="530.43,284.74 502.67,268.71 502.67,236.66 474.91,220.63 447.15,204.61 447.15,236.66 
			474.91,252.69 474.91,284.74 502.67,300.77 		"/>
		<polygon fill="#105268" points="502.67,332.82 530.43,316.79 530.43,284.74 502.67,300.77 		"/>
		<polygon fill="#42BCED" points="530.43,380.9 502.67,364.87 474.91,380.9 502.67,396.92 		"/>
		<polygon fill="#42BCED" points="530.43,477.05 502.67,461.03 474.91,477.05 502.67,493.08 		"/>
		<polygon fill="#105268" points="502.67,621.29 530.43,605.27 530.43,573.22 502.67,589.24 		"/>
		<polygon fill="#42BCED" points="474.91,573.22 502.67,589.24 530.43,573.22 502.67,557.19 		"/>
		<polygon fill="#105268" points="502.67,525.14 474.91,541.15 474.91,573.22 502.67,557.19 		"/>
		<polygon fill="#105268" points="502.67,428.98 474.91,445 474.91,477.05 502.67,461.03 		"/>
		<polygon fill="#42BCED" points="502.67,428.97 474.91,412.95 447.15,428.97 474.91,445 502.67,428.98 		"/>
		<polygon fill="#105268" points="502.67,332.82 474.91,348.84 474.91,380.9 502.67,364.87 		"/>
		<polygon fill="#42BCED" points="474.91,316.79 447.15,332.82 474.91,348.84 502.67,332.82 		"/>
		<polygon fill="#42BCED" points="474.91,509.11 447.15,525.14 474.91,541.15 502.67,525.14 		"/>
		<polygon fill="#105268" points="474.91,477.05 447.15,493.08 447.15,525.14 474.91,509.11 		"/>
		<polygon fill="#105268" points="474.91,380.9 447.15,396.92 447.15,428.97 474.91,412.95 		"/>
		<polygon fill="#105268" points="474.91,284.74 447.15,300.77 447.15,332.82 474.91,316.79 		"/>
		<polygon fill="#42BCED" points="447.15,268.71 446.91,268.85 446.91,268.57 446.91,236.8 446.91,236.52 419.4,220.63 
			419.4,252.69 419.4,284.74 446.91,300.63 447.15,300.77 474.91,284.74 		"/>
		<polygon fill="#42BCED" points="447.15,364.87 447.15,396.92 474.91,380.9 		"/>
		<polygon fill="#105268" points="447.15,621.29 474.91,605.27 474.91,573.22 447.15,589.24 		"/>
		<polygon fill="#42BCED" points="446.91,557.33 419.4,573.22 446.91,589.1 447.15,589.24 474.91,573.22 447.15,557.19 		"/>
		<polygon fill="#105268" points="446.91,557.05 446.91,525.28 419.4,541.15 419.4,573.22 446.91,557.33 		"/>
		<polygon fill="#42BCED" points="446.91,525 419.4,509.11 418.91,509.39 391.63,525.14 418.91,540.87 419.4,541.15 446.91,525.28 
					"/>
		<polygon fill="#42BCED" points="474.91,477.05 447.15,461.03 419.641,476.91 447.15,492.801 447.15,493.08 		"/>
		<polygon fill="#105268" points="447.152,460.75 447.15,428.97 419.4,445 419.4,477.05 447.152,461.03 		"/>
		<polygon fill="#42BCED" points="446.91,365.01 419.4,380.9 446.91,396.78 		"/>
		<polygon fill="#105268" points="446.91,364.73 446.91,332.96 419.4,348.84 419.4,380.9 446.91,365.01 		"/>
		<polygon fill="#42BCED" points="446.91,332.68 419.4,316.79 419.4,348.84 446.91,332.96 		"/>
		<g>
			<polygon fill="#42BCED" points="419.4,412.95 419.4,445 446.91,429.12 446.91,428.83 			"/>
			<polygon fill="#42BCED" points="419.4,445 419.4,412.95 391.63,428.97 			"/>
		</g>
		<polygon fill="#42BCED" points="418.91,349.12 418.91,348.56 418.91,317.07 418.91,316.51 418.91,285.02 418.91,284.46 
			391.63,268.71 391.63,300.77 391.63,332.82 391.63,364.87 418.91,380.62 		"/>
		<polygon fill="#42BCED" points="418.91,188.86 418.91,188.3 391.63,172.55 391.63,204.61 418.91,220.35 		"/>
	</g>
</g>
</svg>
